<?xml version="1.0" encoding="UTF-8" standalone="no"?>
<!-- Created with Inkscape (http://www.inkscape.org/) -->

<svg
   version="1.1"
   id="svg25"
   width="512"
   height="512"
   viewBox="0 0 512 512"
   sodipodi:docname="ff_dark.svg"
   inkscape:export-filename="../684f9be9/ddfdfdf.png"
   inkscape:export-xdpi="96"
   inkscape:export-ydpi="96"
   inkscape:version="1.2.2 (732a01da63, 2022-12-09, custom)"
   xmlns:inkscape="http://www.inkscape.org/namespaces/inkscape"
   xmlns:sodipodi="http://sodipodi.sourceforge.net/DTD/sodipodi-0.dtd"
   xmlns="http://www.w3.org/2000/svg"
   xmlns:svg="http://www.w3.org/2000/svg">
  <defs
     id="defs29" />
  <sodipodi:namedview
     id="namedview27"
     pagecolor="#ffffff"
     bordercolor="#000000"
     borderopacity="0.25"
     inkscape:showpageshadow="2"
     inkscape:pageopacity="0.0"
     inkscape:pagecheckerboard="0"
     inkscape:deskcolor="#d1d1d1"
     showgrid="false"
     inkscape:zoom="0.97851562"
     inkscape:cx="257.02196"
     inkscape:cy="257.02196"
     inkscape:window-width="1292"
     inkscape:window-height="704"
     inkscape:window-x="0"
     inkscape:window-y="0"
     inkscape:window-maximized="1"
     inkscape:current-layer="g31" />
  <g
     inkscape:groupmode="layer"
     inkscape:label="Image"
     id="g31">
    <path
       id="rect319"
       style="fill:#343a40;stroke:#000000;stroke-width:0;stroke-linecap:round;stroke-miterlimit:3.6;stroke-opacity:0.12549;paint-order:stroke markers fill"
       d="m 84.704452,68.642408 c -9.106601,0 -16.436909,7.331739 -16.436909,16.438341 v 20.215631 c 0,9.10659 7.330308,16.43691 16.436909,16.43691 H 427.29556 c 9.1066,0 16.4369,-7.33032 16.4369,-16.43691 V 85.080749 c 0,-9.106602 -7.3303,-16.438341 -16.4369,-16.438341 z M 260.95482,162.66675 c -7.13713,-0.22367 -14.2523,0.71223 -20.85662,2.91881 -8.73685,2.91904 -16.98181,7.47713 -22.52492,12.45071 -8.73845,7.8406 -11.93877,12.60377 -26.36944,39.25229 -21.99378,40.61497 -38.0768,70.33436 -51.43259,95.03876 -6.78945,12.55856 -17.818,32.94039 -24.50799,45.29308 -6.69,12.35267 -16.897089,31.21932 -22.682311,41.92498 -5.785225,10.70567 -10.968017,19.99624 -11.516425,20.64629 -0.548407,0.65007 -0.997261,1.57961 -0.997261,2.06463 0,0.48503 -2.141404,4.6692 -4.758805,9.29871 -2.617402,4.62952 -5.158213,9.17898 -5.645895,10.10995 l -0.885659,1.69263 31.199795,-0.19602 31.201231,-0.19459 11.38192,-20.96249 c 6.26002,-11.52917 21.09345,-38.81808 32.96253,-60.64116 11.86907,-21.82308 28.04746,-51.63678 35.95288,-66.25414 39.81482,-73.61866 40.93334,-75.58942 43.75497,-77.09952 0.78092,-0.41792 2.93476,-0.76117 4.786,-0.76117 3.02969,0 3.64004,0.31813 6.11376,3.18208 2.7131,3.14107 7.17971,11.71183 74.4268,142.80566 17.42553,33.96989 33.85665,65.89023 36.51375,70.93425 l 4.83178,9.16993 h 30.57741 30.57739 l -6.97796,-13.66261 c -3.83714,-7.51455 -23.48115,-45.83645 -43.65338,-85.15916 -20.17223,-39.32272 -44.27278,-86.35838 -53.55732,-104.5249 -24.6688,-48.26805 -26.21182,-50.87135 -35.67387,-60.17756 -10.72746,-10.55081 -26.53807,-16.6574 -42.23977,-17.14944 z" />
  </g>
</svg>
